<mxfile host="app.diagrams.net" modified="2023-05-21T08:55:52.029Z" agent="Mozilla/5.0 (Windows NT 10.0; Win64; x64; rv:109.0) Gecko/20100101 Firefox/113.0" etag="hhfgnD6tlC11A4BlU93V" version="21.3.2" type="device">
  <diagram name="Page-1" id="jFEMx681TeEaOXfy0D0k">
    <mxGraphModel dx="1434" dy="754" grid="1" gridSize="10" guides="1" tooltips="1" connect="1" arrows="1" fold="1" page="1" pageScale="1" pageWidth="850" pageHeight="1100" math="0" shadow="0">
      <root>
        <mxCell id="0" />
        <mxCell id="1" parent="0" />
        <mxCell id="-RHoygchYiFBm0QI4CZZ-9" value="1" style="rounded=0;whiteSpace=wrap;html=1;" parent="1" vertex="1">
          <mxGeometry x="180" y="130" width="30" height="30" as="geometry" />
        </mxCell>
        <mxCell id="-RHoygchYiFBm0QI4CZZ-10" value="2" style="rounded=0;whiteSpace=wrap;html=1;" parent="1" vertex="1">
          <mxGeometry x="280" y="130" width="30" height="30" as="geometry" />
        </mxCell>
        <mxCell id="-RHoygchYiFBm0QI4CZZ-34" style="edgeStyle=orthogonalEdgeStyle;rounded=0;orthogonalLoop=1;jettySize=auto;html=1;exitX=1;exitY=0.5;exitDx=0;exitDy=0;entryX=0;entryY=0.5;entryDx=0;entryDy=0;" parent="1" target="-RHoygchYiFBm0QI4CZZ-1" edge="1">
          <mxGeometry relative="1" as="geometry">
            <mxPoint x="140" y="85" as="sourcePoint" />
          </mxGeometry>
        </mxCell>
        <mxCell id="TDdIz3yIHlGSpqmY2lfk-1" value="" style="group" parent="1" vertex="1" connectable="0">
          <mxGeometry x="180" y="70" width="60" height="30" as="geometry" />
        </mxCell>
        <mxCell id="-RHoygchYiFBm0QI4CZZ-1" value="" style="rounded=0;whiteSpace=wrap;html=1;" parent="TDdIz3yIHlGSpqmY2lfk-1" vertex="1">
          <mxGeometry width="30" height="30" as="geometry" />
        </mxCell>
        <mxCell id="-RHoygchYiFBm0QI4CZZ-2" value="" style="rounded=0;whiteSpace=wrap;html=1;" parent="TDdIz3yIHlGSpqmY2lfk-1" vertex="1">
          <mxGeometry x="30" width="30" height="30" as="geometry" />
        </mxCell>
        <mxCell id="-RHoygchYiFBm0QI4CZZ-7" value="" style="shape=waypoint;sketch=0;fillStyle=solid;size=6;pointerEvents=1;points=[];fillColor=none;resizable=0;rotatable=0;perimeter=centerPerimeter;snapToPoint=1;" parent="TDdIz3yIHlGSpqmY2lfk-1" vertex="1">
          <mxGeometry x="5" y="5" width="20" height="20" as="geometry" />
        </mxCell>
        <mxCell id="-RHoygchYiFBm0QI4CZZ-8" value="" style="shape=waypoint;sketch=0;fillStyle=solid;size=6;pointerEvents=1;points=[];fillColor=none;resizable=0;rotatable=0;perimeter=centerPerimeter;snapToPoint=1;" parent="TDdIz3yIHlGSpqmY2lfk-1" vertex="1">
          <mxGeometry x="35" y="5" width="20" height="20" as="geometry" />
        </mxCell>
        <mxCell id="TDdIz3yIHlGSpqmY2lfk-2" value="" style="group" parent="1" vertex="1" connectable="0">
          <mxGeometry x="280" y="70" width="60" height="30" as="geometry" />
        </mxCell>
        <mxCell id="TDdIz3yIHlGSpqmY2lfk-3" value="" style="rounded=0;whiteSpace=wrap;html=1;" parent="TDdIz3yIHlGSpqmY2lfk-2" vertex="1">
          <mxGeometry width="30" height="30" as="geometry" />
        </mxCell>
        <mxCell id="TDdIz3yIHlGSpqmY2lfk-4" value="" style="rounded=0;whiteSpace=wrap;html=1;" parent="TDdIz3yIHlGSpqmY2lfk-2" vertex="1">
          <mxGeometry x="30" width="30" height="30" as="geometry" />
        </mxCell>
        <mxCell id="TDdIz3yIHlGSpqmY2lfk-5" value="" style="shape=waypoint;sketch=0;fillStyle=solid;size=6;pointerEvents=1;points=[];fillColor=none;resizable=0;rotatable=0;perimeter=centerPerimeter;snapToPoint=1;" parent="TDdIz3yIHlGSpqmY2lfk-2" vertex="1">
          <mxGeometry x="5" y="5" width="20" height="20" as="geometry" />
        </mxCell>
        <mxCell id="TDdIz3yIHlGSpqmY2lfk-6" value="" style="shape=waypoint;sketch=0;fillStyle=solid;size=6;pointerEvents=1;points=[];fillColor=none;resizable=0;rotatable=0;perimeter=centerPerimeter;snapToPoint=1;" parent="TDdIz3yIHlGSpqmY2lfk-2" vertex="1">
          <mxGeometry x="35" y="5" width="20" height="20" as="geometry" />
        </mxCell>
        <mxCell id="TDdIz3yIHlGSpqmY2lfk-7" value="" style="group" parent="1" vertex="1" connectable="0">
          <mxGeometry x="380" y="70" width="60" height="30" as="geometry" />
        </mxCell>
        <mxCell id="TDdIz3yIHlGSpqmY2lfk-8" value="" style="rounded=0;whiteSpace=wrap;html=1;" parent="TDdIz3yIHlGSpqmY2lfk-7" vertex="1">
          <mxGeometry width="30" height="30" as="geometry" />
        </mxCell>
        <mxCell id="TDdIz3yIHlGSpqmY2lfk-9" value="" style="rounded=0;whiteSpace=wrap;html=1;" parent="TDdIz3yIHlGSpqmY2lfk-7" vertex="1">
          <mxGeometry x="30" width="30" height="30" as="geometry" />
        </mxCell>
        <mxCell id="TDdIz3yIHlGSpqmY2lfk-10" value="" style="shape=waypoint;sketch=0;fillStyle=solid;size=6;pointerEvents=1;points=[];fillColor=none;resizable=0;rotatable=0;perimeter=centerPerimeter;snapToPoint=1;" parent="TDdIz3yIHlGSpqmY2lfk-7" vertex="1">
          <mxGeometry x="5" y="5" width="20" height="20" as="geometry" />
        </mxCell>
        <mxCell id="TDdIz3yIHlGSpqmY2lfk-11" value="" style="shape=waypoint;sketch=0;fillStyle=solid;size=6;pointerEvents=1;points=[];fillColor=none;resizable=0;rotatable=0;perimeter=centerPerimeter;snapToPoint=1;" parent="TDdIz3yIHlGSpqmY2lfk-7" vertex="1">
          <mxGeometry x="35" y="5" width="20" height="20" as="geometry" />
        </mxCell>
        <mxCell id="TDdIz3yIHlGSpqmY2lfk-19" value="" style="group" parent="1" vertex="1" connectable="0">
          <mxGeometry x="580" y="70" width="60" height="30" as="geometry" />
        </mxCell>
        <mxCell id="TDdIz3yIHlGSpqmY2lfk-20" value="" style="rounded=0;whiteSpace=wrap;html=1;" parent="TDdIz3yIHlGSpqmY2lfk-19" vertex="1">
          <mxGeometry width="30" height="30" as="geometry" />
        </mxCell>
        <mxCell id="TDdIz3yIHlGSpqmY2lfk-21" value="" style="rounded=0;whiteSpace=wrap;html=1;" parent="TDdIz3yIHlGSpqmY2lfk-19" vertex="1">
          <mxGeometry x="30" width="30" height="30" as="geometry" />
        </mxCell>
        <mxCell id="TDdIz3yIHlGSpqmY2lfk-22" value="" style="shape=waypoint;sketch=0;fillStyle=solid;size=6;pointerEvents=1;points=[];fillColor=none;resizable=0;rotatable=0;perimeter=centerPerimeter;snapToPoint=1;" parent="TDdIz3yIHlGSpqmY2lfk-19" vertex="1">
          <mxGeometry x="5" y="5" width="20" height="20" as="geometry" />
        </mxCell>
        <mxCell id="TDdIz3yIHlGSpqmY2lfk-24" style="edgeStyle=orthogonalEdgeStyle;rounded=0;orthogonalLoop=1;jettySize=auto;html=1;entryX=0;entryY=0.5;entryDx=0;entryDy=0;" parent="1" source="TDdIz3yIHlGSpqmY2lfk-6" target="TDdIz3yIHlGSpqmY2lfk-8" edge="1">
          <mxGeometry relative="1" as="geometry" />
        </mxCell>
        <mxCell id="TDdIz3yIHlGSpqmY2lfk-25" style="edgeStyle=orthogonalEdgeStyle;rounded=0;orthogonalLoop=1;jettySize=auto;html=1;exitX=0.5;exitY=0.5;exitDx=0;exitDy=0;entryX=0;entryY=0.5;entryDx=0;entryDy=0;exitPerimeter=0;" parent="1" source="TDdIz3yIHlGSpqmY2lfk-11" target="TDdIz3yIHlGSpqmY2lfk-15" edge="1">
          <mxGeometry relative="1" as="geometry" />
        </mxCell>
        <mxCell id="TDdIz3yIHlGSpqmY2lfk-28" value="3" style="rounded=0;whiteSpace=wrap;html=1;" parent="1" vertex="1">
          <mxGeometry x="380" y="130" width="30" height="30" as="geometry" />
        </mxCell>
        <mxCell id="TDdIz3yIHlGSpqmY2lfk-31" value="4" style="rounded=0;whiteSpace=wrap;html=1;" parent="1" vertex="1">
          <mxGeometry x="480" y="130" width="30" height="30" as="geometry" />
        </mxCell>
        <mxCell id="TDdIz3yIHlGSpqmY2lfk-32" value="5" style="rounded=0;whiteSpace=wrap;html=1;" parent="1" vertex="1">
          <mxGeometry x="580" y="130" width="30" height="30" as="geometry" />
        </mxCell>
        <mxCell id="TDdIz3yIHlGSpqmY2lfk-33" style="edgeStyle=orthogonalEdgeStyle;rounded=0;orthogonalLoop=1;jettySize=auto;html=1;entryX=0.5;entryY=0;entryDx=0;entryDy=0;" parent="1" source="TDdIz3yIHlGSpqmY2lfk-5" target="-RHoygchYiFBm0QI4CZZ-10" edge="1">
          <mxGeometry relative="1" as="geometry" />
        </mxCell>
        <mxCell id="TDdIz3yIHlGSpqmY2lfk-34" style="edgeStyle=orthogonalEdgeStyle;rounded=0;orthogonalLoop=1;jettySize=auto;html=1;exitX=0.75;exitY=0.5;exitDx=0;exitDy=0;entryX=0.5;entryY=0;entryDx=0;entryDy=0;exitPerimeter=0;" parent="1" source="TDdIz3yIHlGSpqmY2lfk-10" target="TDdIz3yIHlGSpqmY2lfk-28" edge="1">
          <mxGeometry relative="1" as="geometry" />
        </mxCell>
        <mxCell id="TDdIz3yIHlGSpqmY2lfk-38" value="" style="endArrow=none;html=1;rounded=0;exitX=0;exitY=1;exitDx=0;exitDy=0;" parent="1" source="TDdIz3yIHlGSpqmY2lfk-21" edge="1">
          <mxGeometry width="50" height="50" relative="1" as="geometry">
            <mxPoint x="640" y="200" as="sourcePoint" />
            <mxPoint x="640" y="70" as="targetPoint" />
          </mxGeometry>
        </mxCell>
        <mxCell id="-RHoygchYiFBm0QI4CZZ-3" value="" style="endArrow=classic;html=1;rounded=0;entryX=0.5;entryY=0;entryDx=0;entryDy=0;" parent="1" target="-RHoygchYiFBm0QI4CZZ-9" edge="1">
          <mxGeometry width="50" height="50" relative="1" as="geometry">
            <mxPoint x="195" y="85" as="sourcePoint" />
            <mxPoint x="205" y="140" as="targetPoint" />
          </mxGeometry>
        </mxCell>
        <mxCell id="TDdIz3yIHlGSpqmY2lfk-39" value="" style="group" parent="1" vertex="1" connectable="0">
          <mxGeometry x="480" y="70" width="60" height="30" as="geometry" />
        </mxCell>
        <mxCell id="TDdIz3yIHlGSpqmY2lfk-15" value="" style="rounded=0;whiteSpace=wrap;html=1;container=0;" parent="TDdIz3yIHlGSpqmY2lfk-39" vertex="1">
          <mxGeometry width="30" height="30" as="geometry" />
        </mxCell>
        <mxCell id="TDdIz3yIHlGSpqmY2lfk-16" value="" style="rounded=0;whiteSpace=wrap;html=1;container=0;" parent="TDdIz3yIHlGSpqmY2lfk-39" vertex="1">
          <mxGeometry x="30" width="30" height="30" as="geometry" />
        </mxCell>
        <mxCell id="TDdIz3yIHlGSpqmY2lfk-17" value="" style="shape=waypoint;sketch=0;fillStyle=solid;size=6;pointerEvents=1;points=[];fillColor=none;resizable=0;rotatable=0;perimeter=centerPerimeter;snapToPoint=1;container=0;" parent="TDdIz3yIHlGSpqmY2lfk-39" vertex="1">
          <mxGeometry x="5" y="5" width="20" height="20" as="geometry" />
        </mxCell>
        <mxCell id="TDdIz3yIHlGSpqmY2lfk-18" value="" style="shape=waypoint;sketch=0;fillStyle=solid;size=6;pointerEvents=1;points=[];fillColor=none;resizable=0;rotatable=0;perimeter=centerPerimeter;snapToPoint=1;container=0;" parent="TDdIz3yIHlGSpqmY2lfk-39" vertex="1">
          <mxGeometry x="35" y="5" width="20" height="20" as="geometry" />
        </mxCell>
        <mxCell id="-RHoygchYiFBm0QI4CZZ-5" value="" style="endArrow=classic;html=1;rounded=0;entryX=0;entryY=0.5;entryDx=0;entryDy=0;" parent="1" source="-RHoygchYiFBm0QI4CZZ-8" target="TDdIz3yIHlGSpqmY2lfk-3" edge="1">
          <mxGeometry width="50" height="50" relative="1" as="geometry">
            <mxPoint x="215" y="110" as="sourcePoint" />
            <mxPoint x="280" y="90" as="targetPoint" />
          </mxGeometry>
        </mxCell>
        <mxCell id="TDdIz3yIHlGSpqmY2lfk-26" style="edgeStyle=orthogonalEdgeStyle;rounded=0;orthogonalLoop=1;jettySize=auto;html=1;entryX=0;entryY=0.5;entryDx=0;entryDy=0;" parent="1" source="TDdIz3yIHlGSpqmY2lfk-18" target="TDdIz3yIHlGSpqmY2lfk-20" edge="1">
          <mxGeometry relative="1" as="geometry" />
        </mxCell>
        <mxCell id="TDdIz3yIHlGSpqmY2lfk-35" style="edgeStyle=orthogonalEdgeStyle;rounded=0;orthogonalLoop=1;jettySize=auto;html=1;entryX=0.5;entryY=0;entryDx=0;entryDy=0;" parent="1" source="TDdIz3yIHlGSpqmY2lfk-17" target="TDdIz3yIHlGSpqmY2lfk-31" edge="1">
          <mxGeometry relative="1" as="geometry" />
        </mxCell>
        <mxCell id="TDdIz3yIHlGSpqmY2lfk-36" style="edgeStyle=orthogonalEdgeStyle;rounded=0;orthogonalLoop=1;jettySize=auto;html=1;entryX=0.5;entryY=0;entryDx=0;entryDy=0;" parent="1" source="TDdIz3yIHlGSpqmY2lfk-22" target="TDdIz3yIHlGSpqmY2lfk-32" edge="1">
          <mxGeometry relative="1" as="geometry" />
        </mxCell>
      </root>
    </mxGraphModel>
  </diagram>
</mxfile>
